<?xml version="1.0" encoding="UTF-8"?>
<svg width="20px" height="40px" viewBox="0 0 20 40" version="1.1" xmlns="http://www.w3.org/2000/svg" xmlns:xlink="http://www.w3.org/1999/xlink">
    <!-- Generator: Sketch 51.2 (57519) - http://www.bohemiancoding.com/sketch -->
    <title>dianchi-chongdian</title>
    <desc>Created with Sketch.</desc>
    <defs></defs>
    <g id="dianchi-chongdian" stroke="none" stroke-width="1" fill="none" fill-rule="evenodd">
        <path d="M18.7494182,16.2204661 L14.9994747,16.2204661 L14.9994747,1.33698104 C15.0157245,1.01157689 14.913226,0.692430519 14.7044792,0.435861865 C14.2282364,-0.148614047 13.124503,-0.143607829 12.6520101,0.440868082 C12.6195106,0.480917823 12.5895111,0.523470674 12.5620115,0.569778187 L0.187198211,20.5683662 C-0.0515481867,20.9550965 -0.0627980169,21.439448 0.158448645,21.8361908 C0.378445326,22.2329335 0.795939027,22.4782382 1.24968218,22.4782382 L6.24960674,22.4782382 L6.25210671,38.6595852 L6.25335669,38.6595852 C6.25460667,38.9537005 6.34960524,39.2590798 6.52210263,39.4818565 C6.75834907,39.7909904 7.18334266,40 7.57208679,40 C7.95333104,40 8.3670748,39.7997513 8.60332123,39.5018813 C8.65332048,39.4393036 8.69581984,39.3729712 8.73331927,39.3028842 L19.8569014,18.0527418 C20.0606484,17.6647599 20.0456486,17.1991817 19.819402,16.8249669 C19.5931554,16.4507521 19.1869116,16.2204661 18.7494182,16.2204661 Z" id="Shape" fill="#62FFF4" fill-rule="nonzero"></path>
    </g>
</svg>