<?xml version="1.0" encoding="UTF-8"?>
<svg width="16px" height="15px" viewBox="0 0 16 15" version="1.1" xmlns="http://www.w3.org/2000/svg" xmlns:xlink="http://www.w3.org/1999/xlink">
    <!-- Generator: Sketch 51.2 (57519) - http://www.bohemiancoding.com/sketch -->
    <title>icon-Setting</title>
    <desc>Created with Sketch.</desc>
    <defs></defs>
    <g id="icon-Setting" stroke="none" stroke-width="1" fill="none" fill-rule="evenodd">
        <path d="M10.3982604,15 L10.3981691,15 C10.1071654,14.9999093 9.82425221,14.8804402 9.6415302,14.6802855 C9.3926046,14.4093269 8.6038592,13.7047148 7.95820496,13.7047148 C7.31700691,13.7047148 6.516007,14.4134246 6.28598367,14.66161 C6.10369999,14.8583922 5.82279573,14.9758669 5.53454972,14.9758669 C5.39721145,14.9758669 5.26770804,14.9497211 5.14941815,14.8981186 L5.12868956,14.889089 L3.16623158,13.799525 L3.14672662,13.7860351 C2.78944622,13.5377591 2.65347768,13.052086 2.83053813,12.656382 C2.83190786,12.6533359 3.01156166,12.2417668 3.01156166,11.8665152 C3.01156166,10.727742 2.07830062,9.80119912 0.931288628,9.80119912 L0.861688074,9.80119912 C0.857451043,9.80128979 0.853214012,9.80139856 0.849086562,9.80139856 C0.520479187,9.80139856 0.252943495,9.51160121 0.167435804,9.06313425 C0.160623683,9.02719741 0,8.17657157 0,7.50635515 C0,6.83610245 0.160623683,5.98540409 0.167435804,5.94948538 C0.253947948,5.49532508 0.527327823,5.20356952 0.861688074,5.21140238 L0.931288628,5.21140238 C2.07830062,5.21140238 3.01156166,4.28485953 3.01156166,3.14610444 C3.01156166,2.77094352 2.83199916,2.35946502 2.83009982,2.35534914 C2.65329506,1.96000776 2.79015848,1.47442539 3.14897298,1.2269472 L3.16929978,1.21294961 L5.24040478,0.0834778694 L5.26197347,0.0743939454 C5.37865621,0.0249853447 5.50635158,0 5.6416444,0 C5.92928773,0 6.21070334,0.114899937 6.39468547,0.307385001 C6.63984889,0.562188364 7.41465956,1.22491645 8.04181332,1.22491645 C8.66303157,1.22491645 9.43316689,0.575333773 9.67750848,0.324972652 C9.86041311,0.136422155 10.1398928,0.0234804293 10.4246141,0.0234804293 C10.5626646,0.0234804293 10.692789,0.0493723484 10.811298,0.10053972 L10.8322457,0.109659914 L12.8326726,1.21296772 L12.8523602,1.2267296 C13.2102798,1.47464296 13.3466136,1.9603341 13.1694436,2.35627382 C13.1680921,2.3593018 12.9884201,2.77090723 12.9884201,3.14614068 C12.9884201,4.28489577 13.9216994,5.21143862 15.0686931,5.21143862 L15.1383119,5.21143862 C15.4721973,5.20404092 15.7459425,5.49525254 15.8325459,5.94952161 C15.8393946,5.98544032 16,6.83606616 16,7.50630071 C16,8.17653528 15.8393946,9.02723365 15.8324546,9.06317048 C15.7459607,9.51733078 15.4721973,9.80803471 15.1382206,9.80123535 L15.0686931,9.80123535 C13.9216811,9.80123535 12.9884201,10.7277963 12.9884201,11.8665514 C12.9884201,12.2416942 13.1680008,12.6531002 13.1698089,12.6571979 C13.3465223,13.0522673 13.2100059,13.5379404 12.8518306,13.7856905 L12.8317595,13.7996337 L10.797619,14.915815 L10.7763973,14.9248808 C10.6600433,14.9747245 10.5328045,15 10.3982604,15 Z M10.3364765,14.0485262 C10.3455715,14.054419 10.3712859,14.0644276 10.3982605,14.0644276 C10.3993562,14.0644276 10.4004338,14.0644276 10.4013286,14.064337 L12.3018383,13.0215343 C12.2559797,12.9157364 12.0461736,12.4021589 12.0461736,11.866624 C12.0461736,10.2647516 13.3170275,8.95195126 14.910261,8.86986951 C14.9331994,8.744145 15.0576439,8.03695824 15.0576439,7.50637325 C15.0576439,6.97589707 14.9331994,6.26894601 14.910261,6.142877 C13.3170275,6.06074086 12.0461736,4.74797682 12.0461736,3.14612255 C12.0461736,2.60971732 12.2566007,2.09555957 12.3021122,1.99055947 L10.4324307,0.959288498 C10.4302939,0.959197832 10.427664,0.959034661 10.4246141,0.959034661 C10.3927815,0.959034661 10.3630127,0.970548218 10.3531142,0.977166256 C10.3217382,1.00920479 10.050696,1.28203096 9.66140046,1.5539143 C9.08514588,1.95638141 8.54026723,2.16048882 8.04181332,2.16048882 C7.53848316,2.16048882 6.98923967,1.95237432 6.40924114,1.54196559 C6.01757138,1.26484222 5.74530556,0.98672162 5.71385656,0.954139141 C5.70390318,0.947448581 5.67375087,0.935554249 5.64162612,0.935554249 C5.63912408,0.935554249 5.63685946,0.935663042 5.63497837,0.93575369 L3.69841742,1.99173803 C3.74484213,2.09887764 3.95382642,2.61151234 3.95382642,3.14612255 C3.95382642,4.7479768 2.68297257,6.06074086 1.08973905,6.142877 C1.0668189,6.26867403 0.942356091,6.9758064 0.942356091,7.50637325 C0.942356091,8.03688571 1.06680063,8.74370985 1.08983037,8.86977886 C2.68297259,8.95195127 3.95382644,10.264679 3.95382644,11.8665333 C3.95382644,12.4040083 3.74257753,12.9190545 3.69763213,13.0227129 L5.53049538,14.0401857 C5.53168248,14.0403126 5.53305221,14.0403126 5.53456804,14.0403126 C5.56135995,14.0403126 5.58672737,14.0305941 5.59578583,14.024792 C5.63008387,13.9882749 5.90381073,13.7006171 6.29814691,13.4136664 C6.88588896,12.9859782 7.44444664,12.7691606 7.95822327,12.7691606 C8.4768944,12.7691606 9.03965257,12.9901304 9.63084635,13.4259596 C10.0274288,13.7183679 10.3023063,14.0113927 10.3364765,14.0485262 Z M7.96490753,10.2463843 C6.437348,10.2463843 5.19458275,9.01252893 5.19458275,7.49591132 C5.19458275,5.97932997 6.437348,4.7455109 7.96490753,4.7455109 C9.49254011,4.7455109 10.7354149,5.97934808 10.7354149,7.49591132 C10.7354149,9.01252893 9.49252186,10.2463843 7.96490753,10.2463843 Z M7.96490753,5.68104702 C6.95691402,5.68104702 6.13690227,6.49515582 6.13690227,7.49591132 C6.13690227,8.49666679 6.95691402,9.31092065 7.96490753,9.31092065 C8.9729193,9.31092065 9.79307716,8.49668494 9.79307716,7.49591132 C9.79307716,6.49515584 8.97301062,5.68104702 7.96490753,5.68104702 Z" id="Shape" fill="#FFFFFF" fill-rule="nonzero"></path>
    </g>
</svg>