<?xml version="1.0" encoding="UTF-8"?>
<svg width="118px" height="102px" viewBox="0 0 118 102" version="1.1" xmlns="http://www.w3.org/2000/svg" xmlns:xlink="http://www.w3.org/1999/xlink">
    <!-- Generator: Sketch 51.2 (57519) - http://www.bohemiancoding.com/sketch -->
    <title>icon-feng</title>
    <desc>Created with Sketch.</desc>
    <defs></defs>
    <g id="icon-feng" stroke="none" stroke-width="1" fill="none" fill-rule="evenodd">
        <g id="Group-2" transform="translate(27.000000, 0.000000)">
            <path id="Combined-Shape" d="M35.7952235,30.3456419 C34.5934899,29.3547627 33.0876549,28.8032787 31.5,28.8032787 C29.9123451,28.8032787 28.4065101,29.3547627 27.2047765,30.3456419 L28.8409489,31.1171888 L28.8409489,22.0191612 L28.8274213,22.183089 L32.4864723,0.1639278 L30.5135277,0.1639278 L34.1725787,22.183089 L34.1590511,22.0191612 L34.1590511,31.1171888 L35.7952235,30.3456419 Z M34.5228786,31.8887357 C35.1751446,32.4265561 36.1590511,31.9625891 36.1590511,31.1171888 L36.1590511,22.0191612 L36.1455234,21.8552334 L32.4864723,-0.1639278 C32.3012258,-1.27869073 30.6987742,-1.27869073 30.5135277,-0.1639278 L26.8544766,21.8552334 L26.8409489,22.0191612 L26.8409489,31.1171888 C26.8409489,31.9625891 27.8248554,32.4265561 28.4771214,31.8887357 C29.3240054,31.1904447 30.3811678,30.8032787 31.5,30.8032787 C32.6188322,30.8032787 33.6759946,31.1904447 34.5228786,31.8887357 Z M34.2123419,41.8259001 C36.6572936,40.7519166 38.2702703,38.3229898 38.2702703,35.5983607 C38.2702703,35.1168351 38.2202092,34.6411575 38.1217286,34.1770538 L37.1435092,34.3846273 L36.6435092,35.2506527 L44.3001568,39.6712202 L44.164955,39.577541 L61.4045824,53.7559528 L62.3910547,52.0473326 L41.4923763,44.2065831 L41.6411057,44.2768317 L34.3101666,40.044312 L34.2123419,41.8259001 Z M33.4079913,39.9947748 C32.6578192,40.3242996 32.6005832,41.3666847 33.3101666,41.7763628 L40.6411057,46.0088825 L40.7898352,46.0791311 L61.6885137,53.9198806 C62.74655,54.3168338 63.5477757,52.9290701 62.674986,52.2112604 L45.4353586,38.0328486 L45.3001568,37.9391694 L37.6435092,33.5186019 C36.8937798,33.0857454 35.9855908,33.7453435 36.1652898,34.5922007 C36.2348519,34.9200222 36.2702703,35.2565656 36.2702703,35.5983607 C36.2702703,37.5233138 35.1319245,39.23751 33.4079913,39.9947748 Z M24.8782714,34.1770538 C24.7797908,34.6411575 24.7297297,35.1168351 24.7297297,35.5983607 C24.7297297,38.3229898 26.3427064,40.7519166 28.7876581,41.8259001 L28.6898334,40.044312 L21.3588943,44.2768317 L21.5076237,44.2065831 L0.608945271,52.0473326 L1.59541761,53.7559528 L18.835045,39.577541 L18.6998432,39.6712202 L26.3564908,35.2506527 L25.8564908,34.3846273 L24.8782714,34.1770538 Z M26.8347102,34.5922007 C27.0144092,33.7453435 26.1062202,33.0857454 25.3564908,33.5186019 L17.6998432,37.9391694 L17.5646414,38.0328486 L0.325013992,52.2112604 C-0.547775733,52.9290701 0.253450018,54.3168338 1.31148633,53.9198806 L22.2101648,46.0791311 L22.3588943,46.0088825 L29.6898334,41.7763628 C30.3994168,41.3666847 30.3421808,40.3242996 29.5920087,39.9947748 C27.8680755,39.23751 26.7297297,37.5233138 26.7297297,35.5983607 C26.7297297,35.2565656 26.7651481,34.9200222 26.8347102,34.5922007 Z" fill="#FFFFFF" fill-rule="nonzero"></path>
            <path d="M33.3090765,41.9307917 L36.4459459,101 L26.5540541,101 L29.6909235,41.9307917 C30.2599354,42.1193042 30.8681062,42.2213115 31.5,42.2213115 C32.1318938,42.2213115 32.7400646,42.1193042 33.3090765,41.9307917 Z" id="Combined-Shape" stroke="#FFFFFF" stroke-width="3" stroke-linejoin="round"></path>
            <ellipse id="Oval-3" stroke="#FFFFFF" stroke-width="2" cx="31.5" cy="35.5983607" rx="5.77027027" ry="5.79508197"></ellipse>
        </g>
        <g id="Group-2-Copy" transform="translate(0.000000, 28.000000)">
            <path id="Combined-Shape" d="M27.3951374,22.7530051 C26.4671423,21.9192239 25.2686479,21.4494382 24,21.4494382 C22.7313521,21.4494382 21.5328577,21.9192239 20.6048626,22.7530051 L21.2732007,23.4968627 L21.2732007,22.4968627 L21.2407156,22.4968627 L21.2407156,23.4968627 L22.2407156,23.4968627 L22.2407156,16.5860207 L22.2271582,16.7501273 L24.9864426,0.164106614 L23.0135574,0.164106614 L25.7728418,16.7501273 L25.7592844,16.5860207 L25.7592844,23.4968627 L26.7592844,23.4968627 L26.7592844,22.4968627 L26.7267993,22.4968627 L26.7267993,23.4968627 L27.3951374,22.7530051 Z M26.0584611,24.2407203 C26.2420089,24.4056336 26.480048,24.4968627 26.7267993,24.4968627 L26.7592844,24.4968627 C27.3115692,24.4968627 27.7592844,24.0491474 27.7592844,23.4968627 L27.7592844,16.5860207 L27.745727,16.4219141 L24.9864426,-0.164106614 C24.801028,-1.27863113 23.198972,-1.27863113 23.0135574,-0.164106614 L20.254273,16.4219141 L20.2407156,16.5860207 L20.2407156,23.4968627 C20.2407156,24.0491474 20.6884308,24.4968627 21.2407156,24.4968627 L21.2732007,24.4968627 C21.519952,24.4968627 21.7579911,24.4056336 21.9415389,24.2407203 C22.5063771,23.7332268 23.2303647,23.4494382 24,23.4494382 C24.7696353,23.4494382 25.4936229,23.7332268 26.0584611,24.2407203 Z M25.6105916,31.4946605 C27.6832712,30.8000884 29.1071429,28.838432 29.1071429,26.6029406 C29.1071429,26.2687298 29.0754855,25.9380612 29.0130771,25.614315 L28.0311549,25.8035995 L28.8971803,26.3035995 L28.9153835,26.2720706 L28.049358,25.7720706 L27.549358,26.638096 L33.5343228,30.093517 L33.398981,29.9997227 L46.383254,40.6823434 L47.3696966,38.9737747 L31.6261392,33.0703747 L31.7750383,33.140687 L25.7900736,29.685266 L25.2900736,30.5512914 L26.156099,31.0512914 L26.158875,31.0464834 L25.2928496,30.5464834 L25.6105916,31.4946605 Z M24.9751075,29.5983062 C24.7437976,29.67582 24.5488003,29.8352145 24.4268242,30.0464834 L24.4240482,30.0512914 C24.1479059,30.529584 24.311781,31.1411744 24.7900736,31.4173168 L30.7750383,34.8727378 L30.9239375,34.9430501 L46.667495,40.84645 C47.7254089,41.2431385 48.5264369,39.8557173 47.6539376,39.1378813 L34.6696646,28.4552606 L34.5343228,28.3614662 L28.549358,24.9060452 C28.0710654,24.6299028 27.459475,24.793778 27.1833326,25.2720706 L27.1651295,25.3035995 C27.0448437,25.5119405 27.0036961,25.7566615 27.0492326,25.992884 C27.0876211,26.1920262 27.1071429,26.3959358 27.1071429,26.6029406 C27.1071429,27.9753915 26.2357959,29.175839 24.9751075,29.5983062 Z M18.9869229,25.614315 C18.9245145,25.9380612 18.8928571,26.2687298 18.8928571,26.6029406 C18.8928571,28.838432 20.3167288,30.8000884 22.3894084,31.4946605 L22.7071504,30.5464834 L21.841125,31.0464834 L21.843901,31.0512914 L22.7099264,30.5512914 L22.2099264,29.685266 L16.2249617,33.140687 L16.3738608,33.0703747 L0.63030335,38.9737747 L1.61674596,40.6823434 L14.601019,29.9997227 L14.4656772,30.093517 L20.450642,26.638096 L19.950642,25.7720706 L19.0846165,26.2720706 L19.1028197,26.3035995 L19.9688451,25.8035995 L18.9869229,25.614315 Z M20.9507674,25.992884 C20.9963039,25.7566615 20.9551563,25.5119405 20.8348705,25.3035995 L20.8166674,25.2720706 C20.540525,24.793778 19.9289346,24.6299028 19.450642,24.9060452 L13.4656772,28.3614662 L13.3303354,28.4552606 L0.346062356,39.1378813 C-0.526436895,39.8557173 0.274591131,41.2431385 1.33250496,40.84645 L17.0760625,34.9430501 L17.2249617,34.8727378 L23.2099264,31.4173168 C23.688219,31.1411744 23.8520941,30.529584 23.5759518,30.0512914 L23.5731758,30.0464834 C23.4511997,29.8352145 23.2562024,29.67582 23.0248925,29.5983062 C21.7642041,29.175839 20.8928571,27.9753915 20.8928571,26.6029406 C20.8928571,26.3959358 20.9123789,26.1920262 20.9507674,25.992884 Z" fill="#FFFFFF" fill-rule="nonzero"></path>
            <path d="M25.5031987,31.3009132 L28.1071429,74 L19.8928571,74 L22.4968013,31.3009132 C22.9623449,31.4861601 23.4694233,31.5879037 24,31.5879037 C24.5305767,31.5879037 25.0376551,31.4861601 25.5031987,31.3009132 Z" id="Combined-Shape" stroke="#FFFFFF" stroke-width="3" stroke-linejoin="round"></path>
            <ellipse id="Oval-3" stroke="#FFFFFF" stroke-width="2" cx="24" cy="26.6029406" rx="4.10714286" ry="4.15350241"></ellipse>
        </g>
        <g id="Group-2-Copy" transform="translate(70.000000, 28.000000)">
            <path id="Combined-Shape" d="M27.3951374,22.7530051 C26.4671423,21.9192239 25.2686479,21.4494382 24,21.4494382 C22.7313521,21.4494382 21.5328577,21.9192239 20.6048626,22.7530051 L21.2732007,23.4968627 L21.2732007,22.4968627 L21.2407156,22.4968627 L21.2407156,23.4968627 L22.2407156,23.4968627 L22.2407156,16.5860207 L22.2271582,16.7501273 L24.9864426,0.164106614 L23.0135574,0.164106614 L25.7728418,16.7501273 L25.7592844,16.5860207 L25.7592844,23.4968627 L26.7592844,23.4968627 L26.7592844,22.4968627 L26.7267993,22.4968627 L26.7267993,23.4968627 L27.3951374,22.7530051 Z M26.0584611,24.2407203 C26.2420089,24.4056336 26.480048,24.4968627 26.7267993,24.4968627 L26.7592844,24.4968627 C27.3115692,24.4968627 27.7592844,24.0491474 27.7592844,23.4968627 L27.7592844,16.5860207 L27.745727,16.4219141 L24.9864426,-0.164106614 C24.801028,-1.27863113 23.198972,-1.27863113 23.0135574,-0.164106614 L20.254273,16.4219141 L20.2407156,16.5860207 L20.2407156,23.4968627 C20.2407156,24.0491474 20.6884308,24.4968627 21.2407156,24.4968627 L21.2732007,24.4968627 C21.519952,24.4968627 21.7579911,24.4056336 21.9415389,24.2407203 C22.5063771,23.7332268 23.2303647,23.4494382 24,23.4494382 C24.7696353,23.4494382 25.4936229,23.7332268 26.0584611,24.2407203 Z M25.6105916,31.4946605 C27.6832712,30.8000884 29.1071429,28.838432 29.1071429,26.6029406 C29.1071429,26.2687298 29.0754855,25.9380612 29.0130771,25.614315 L28.0311549,25.8035995 L28.8971803,26.3035995 L28.9153835,26.2720706 L28.049358,25.7720706 L27.549358,26.638096 L33.5343228,30.093517 L33.398981,29.9997227 L46.383254,40.6823434 L47.3696966,38.9737747 L31.6261392,33.0703747 L31.7750383,33.140687 L25.7900736,29.685266 L25.2900736,30.5512914 L26.156099,31.0512914 L26.158875,31.0464834 L25.2928496,30.5464834 L25.6105916,31.4946605 Z M24.9751075,29.5983062 C24.7437976,29.67582 24.5488003,29.8352145 24.4268242,30.0464834 L24.4240482,30.0512914 C24.1479059,30.529584 24.311781,31.1411744 24.7900736,31.4173168 L30.7750383,34.8727378 L30.9239375,34.9430501 L46.667495,40.84645 C47.7254089,41.2431385 48.5264369,39.8557173 47.6539376,39.1378813 L34.6696646,28.4552606 L34.5343228,28.3614662 L28.549358,24.9060452 C28.0710654,24.6299028 27.459475,24.793778 27.1833326,25.2720706 L27.1651295,25.3035995 C27.0448437,25.5119405 27.0036961,25.7566615 27.0492326,25.992884 C27.0876211,26.1920262 27.1071429,26.3959358 27.1071429,26.6029406 C27.1071429,27.9753915 26.2357959,29.175839 24.9751075,29.5983062 Z M18.9869229,25.614315 C18.9245145,25.9380612 18.8928571,26.2687298 18.8928571,26.6029406 C18.8928571,28.838432 20.3167288,30.8000884 22.3894084,31.4946605 L22.7071504,30.5464834 L21.841125,31.0464834 L21.843901,31.0512914 L22.7099264,30.5512914 L22.2099264,29.685266 L16.2249617,33.140687 L16.3738608,33.0703747 L0.63030335,38.9737747 L1.61674596,40.6823434 L14.601019,29.9997227 L14.4656772,30.093517 L20.450642,26.638096 L19.950642,25.7720706 L19.0846165,26.2720706 L19.1028197,26.3035995 L19.9688451,25.8035995 L18.9869229,25.614315 Z M20.9507674,25.992884 C20.9963039,25.7566615 20.9551563,25.5119405 20.8348705,25.3035995 L20.8166674,25.2720706 C20.540525,24.793778 19.9289346,24.6299028 19.450642,24.9060452 L13.4656772,28.3614662 L13.3303354,28.4552606 L0.346062356,39.1378813 C-0.526436895,39.8557173 0.274591131,41.2431385 1.33250496,40.84645 L17.0760625,34.9430501 L17.2249617,34.8727378 L23.2099264,31.4173168 C23.688219,31.1411744 23.8520941,30.529584 23.5759518,30.0512914 L23.5731758,30.0464834 C23.4511997,29.8352145 23.2562024,29.67582 23.0248925,29.5983062 C21.7642041,29.175839 20.8928571,27.9753915 20.8928571,26.6029406 C20.8928571,26.3959358 20.9123789,26.1920262 20.9507674,25.992884 Z" fill="#FFFFFF" fill-rule="nonzero"></path>
            <path d="M25.5031987,31.3009132 L28.1071429,74 L19.8928571,74 L22.4968013,31.3009132 C22.9623449,31.4861601 23.4694233,31.5879037 24,31.5879037 C24.5305767,31.5879037 25.0376551,31.4861601 25.5031987,31.3009132 Z" id="Combined-Shape" stroke="#FFFFFF" stroke-width="3" stroke-linejoin="round"></path>
            <ellipse id="Oval-3" stroke="#FFFFFF" stroke-width="2" cx="24" cy="26.6029406" rx="4.10714286" ry="4.15350241"></ellipse>
        </g>
    </g>
</svg>