<?xml version="1.0" encoding="UTF-8"?>
<svg width="120px" height="95px" viewBox="0 0 120 95" version="1.1" xmlns="http://www.w3.org/2000/svg" xmlns:xlink="http://www.w3.org/1999/xlink">
    <!-- Generator: Sketch 51.2 (57519) - http://www.bohemiancoding.com/sketch -->
    <title>icon-sun</title>
    <desc>Created with Sketch.</desc>
    <defs></defs>
    <g id="icon-sun" stroke="none" stroke-width="1" fill="none" fill-rule="evenodd">
        <path d="M116.979605,79.0996642 L97.4574051,33.8969984 C97.2266093,33.3654959 96.6982085,33.021127 96.1129763,33.021127 L28.3516358,25.7224852 C28.3440438,25.7224852 28.3381872,25.7233456 28.3318967,25.7233456 C28.2240907,25.7252815 28.113248,25.7388325 28.0065267,25.7655045 C27.9783279,25.7715272 27.9492615,25.7850782 27.9225812,25.7930368 C27.8447093,25.8171275 27.7711757,25.8448749 27.695256,25.8814413 C27.660333,25.8990792 27.627796,25.9197284 27.5924391,25.9393021 C27.5625051,25.9578004 27.5295342,25.9713515 27.4982987,25.9920007 L24.9938173,27.7658984 C24.4270228,28.1679131 24.2259441,28.9104249 24.509016,29.5402264 L32.1031519,47.5272097 L2.55847086,44.3461531 C2.5543495,44.3461531 2.5493605,44.3461531 2.54632371,44.3461531 C2.47539305,44.3470134 2.40402856,44.3560475 2.33461629,44.3736854 C2.31791396,44.3777722 2.30012707,44.3857307 2.28299092,44.3913232 C2.2307148,44.4059498 2.18321078,44.4248782 2.13462219,44.448969 C2.11293086,44.4590785 2.09123953,44.4726296 2.06933128,44.484675 C2.0485076,44.4971505 2.02790083,44.5061846 2.00707715,44.5188753 L0.393892663,45.6627564 C0.0299120837,45.9217322 -0.100669745,46.400106 0.0819712846,46.8062074 L13.9355754,79.6158949 C14.0858963,79.9518751 14.4251488,80.1689071 14.7960706,80.1689071 L33.7367263,80.1689071 L34.658608,83.2566119 L27.7336497,87.8342877 C27.4891884,87.9969004 27.3885406,88.3040576 27.4952619,88.5761542 C27.5894023,88.8200732 27.8238856,88.9764481 28.0820125,88.9764481 C28.1089098,88.9764481 28.1412298,88.9764481 28.1700793,88.9706405 L41.9759625,87.0149865 L52.2630775,84.9190899 C52.5749989,84.8547762 52.7864894,84.5717097 52.7626289,84.2585297 C52.7379008,83.9462101 52.4817261,83.6992798 52.1663342,83.684223 L42.4781169,83.2286494 L42.4781169,80.1667561 L45.884307,80.1667561 L46.0107675,80.4678907 C46.2461184,80.9910045 46.7695303,81.3271997 47.3471705,81.3271997 L51.3069235,81.3271997 L51.9021337,81.3271997 L76.7467366,81.3271997 L78.1772801,86.1195414 L67.4270551,93.2269626 C67.0485413,93.4779798 66.8925806,93.9559234 67.0565671,94.3775118 C67.2023329,94.7569414 67.5686995,95 67.9676031,95 C68.0142395,95 68.0608759,94.9980641 68.1072953,94.990966 L89.5368146,91.9553143 L105.503588,88.7006949 C105.98557,88.6013205 106.317447,88.1638149 106.279054,87.6768373 C106.242612,87.1898597 105.845661,86.8084943 105.352617,86.7852639 L90.3150997,86.0773825 L90.3150997,81.3271997 L115.722159,81.3271997 C115.730185,81.3282752 115.738427,81.3282752 115.742549,81.3271997 C116.552286,81.3271997 117.20628,80.676749 117.20628,79.8744405 C117.208449,79.5905136 117.125371,79.3235793 116.979605,79.0996642 Z M110.002371,70.3278291 L98.0445895,69.8972067 L95.8700333,68.3994924 L93.7037198,63.3148351 L94.8609525,61.8582041 L106.597916,62.4445561 L110.002371,70.3278291 Z M40.2159277,66.7411012 L34.4115437,66.451797 L32.8692899,65.3879315 L31.3036094,61.714735 L32.0593355,60.7661611 L37.8511385,61.1376321 L40.2159277,66.7411012 Z M43.2969647,58.3144954 L39.3274506,48.9765274 L51.6498635,49.7676509 L53.9140049,51.2324555 L56.6727087,57.6922224 L55.515693,58.9249382 L43.2969647,58.3144954 Z M55.0853369,51.4942275 L56.2258673,50.0597514 L69.4315512,50.9078755 L71.8104398,52.4477486 L74.4040726,58.537335 L73.2125676,59.8081229 L59.6789107,59.1314305 L57.7913308,57.8313895 L55.0853369,51.4942275 Z M72.9704923,52.6847846 L74.142692,51.2092251 L86.2191251,51.9861523 L88.4229646,53.4126698 L90.9671412,59.3805118 L89.7877834,60.6353826 L77.7963803,60.0372003 L75.4001386,58.3867677 L72.9704923,52.6847846 Z M85.5692528,50.9730496 L73.4563782,50.1971979 L71.2655535,48.6882985 L68.7530463,42.7905779 L69.7582227,41.5273183 L82.2578538,42.4965415 L84.352152,43.8507867 L86.8193243,49.6450461 L85.5692528,50.9730496 Z M70.2310938,48.7465896 L69.1296079,49.9201541 L55.6705691,49.053962 L53.3628281,47.4648318 L50.7763535,41.4060041 L51.7902064,40.1334954 L65.7262376,41.2145686 L67.5140373,42.3709253 L70.2310938,48.7465896 Z M52.3435524,47.557108 L51.2047573,48.7678841 L38.9038189,47.977836 L35.013912,38.8297978 L47.250861,39.7785868 L49.6980773,41.3642755 L52.3435524,47.557108 Z M37.5786953,60.4949249 L31.6170492,60.1135594 L30.205811,59.1408948 L28.5865529,55.3412217 L29.2325208,54.5270829 L35.2564211,54.995132 L37.5786953,60.4949249 Z M29.5388025,59.1778913 L28.8294959,59.9339542 L20.1577345,59.3766401 L18.672095,58.3527826 L17.005116,54.4487879 L17.6582421,53.6286264 L26.6367189,54.3253227 L27.7872273,55.0712761 L29.5388025,59.1778913 Z M20.5165091,60.0251549 L29.0212473,60.5710689 L30.5543907,61.5628771 L32.2263587,65.4849399 L31.4569671,66.304241 L22.7400877,65.8686714 L21.5227701,65.0313021 L19.7816067,60.9485626 L20.5165091,60.0251549 Z M23.3198971,66.5232089 L31.885371,66.9497445 L33.2196049,67.8140007 L34.8460211,71.6270097 L34.1889906,72.3265023 L25.4716774,72.0113865 L24.1003513,71.0677598 L22.5650387,67.4707073 L23.3198971,66.5232089 Z M33.9939855,68.0260855 L34.7340938,67.0923532 L40.4864186,67.380582 L42.7039236,72.6338747 L36.7973735,72.4211446 L35.4807095,71.5136541 L33.9939855,68.0260855 Z M43.7186442,59.3043678 L55.7356431,59.9047011 L58.336434,61.5882585 L60.7879886,67.3285288 L59.6747893,68.5141386 L47.4445646,68.0712557 L43.7186442,59.3043678 Z M59.4075521,61.6172964 L60.5793179,60.1456088 L73.872418,60.8102558 L75.944808,62.1513801 L78.4696793,68.0691047 L77.4504035,69.1544798 L63.9182649,68.6664267 L61.7901282,67.2007617 L59.4075521,61.6172964 Z M77.1465079,62.4787564 L78.297667,61.0311595 L90.1836502,61.6246097 L92.5859654,63.1795396 L94.8193051,68.4237982 L93.588105,69.7358846 L81.4967049,69.3003149 L79.4516459,67.8927259 L77.1465079,62.4787564 Z M106.171682,61.4536083 L94.1167228,60.8502637 L92.0473696,59.4248216 L89.5572045,53.5791542 L90.6018591,52.2670679 L102.537299,53.0338856 L106.171682,61.4536083 Z M102.105207,52.0354094 L90.2333234,51.2735389 L87.8826335,49.6553707 L85.5341128,44.1394457 L86.574863,42.831016 L98.53156,43.7589406 L102.105207,52.0354094 Z M95.150098,35.9251398 L98.0992517,42.7544417 L86.3568651,41.8430795 L83.8076996,40.0872498 L81.4114579,34.4685088 L95.150098,35.9251398 Z M80.3030308,34.3512814 L82.7944974,40.1993149 L81.5958343,41.4741896 L69.810065,40.5600311 L66.9674157,38.6015808 L64.4397246,32.6696599 L80.3030308,34.3512814 Z M63.3269592,32.5511419 L66.0095264,38.8433489 L64.7644439,40.168341 L51.3598504,39.1279211 L49.1540586,37.608482 L46.2203058,30.7374514 L63.3269592,32.5511419 Z M45.1101433,30.6187183 L48.0404256,37.4781338 L46.8224572,38.7755936 L34.5876773,37.825514 L30.8830144,29.1093888 L45.1101433,30.6187183 Z M32.9705884,49.5787965 L34.9831103,54.348338 L29.2659255,53.9037343 L27.4351769,52.6417653 L25.8068085,48.8210129 L32.9705884,49.5787965 Z M25.0914283,48.7446537 L26.8195769,52.7972798 L26.018299,53.6527171 L17.3818945,52.9822625 L15.961546,52.0022845 L14.0704955,47.5762516 L25.0914283,48.7446537 Z M4.18944224,46.5285183 L13.3551153,47.5009679 L15.2422613,51.9199027 L14.4581196,52.7553361 L6.57548895,52.1448933 L4.18944224,46.5285183 Z M6.85140271,52.7912571 L14.7340334,53.4025603 L16.3107764,54.4234065 L18.0159322,58.4127944 L17.2810298,59.192948 L9.3558841,58.6851061 L6.85140271,52.7912571 Z M9.62984565,59.3254472 L17.5671385,59.835225 L19.0258807,60.7790668 L20.8026178,64.9401014 L20.0575205,65.7350967 L12.1859524,65.3416859 L9.62984565,59.3254472 Z M12.459697,65.9800912 L20.2002495,66.3676944 L21.8756881,67.4517788 L23.4554679,71.1501416 L22.7392201,71.9130876 L14.857674,71.6300211 L12.459697,65.9800912 Z M17.693599,78.2977859 L15.1277311,72.2624037 L22.9875859,72.5452551 L24.4556553,73.4940441 L26.5061371,78.2964953 L17.693599,78.2964953 L17.693599,78.2977859 Z M27.189631,78.2977859 L25.2230947,73.6878457 L26.0430271,72.6558145 L34.3089437,72.9541528 L35.8318922,73.9397233 L37.6914903,78.2977859 L27.189631,78.2977859 Z M30.7357303,87.3486006 L35.4512093,84.2305672 L39.6185483,86.0915789 L30.7357303,87.3486006 Z M41.2191519,85.4402678 L38.6669495,84.2976772 L41.2191519,84.4192065 L41.2191519,85.4402678 Z M41.2191519,83.1703584 L35.8702859,82.9195563 L35.0492689,80.1689071 L41.2189349,80.1689071 L41.2189349,83.1703584 L41.2191519,83.1703584 Z M47.1126872,84.6962503 L42.4781169,85.6418129 L42.4781169,84.4794334 L47.1126872,84.6962503 Z M38.373032,78.2977859 L36.6125633,74.1677252 L37.4878086,73.068584 L42.9718116,73.2664724 L45.0966947,78.298001 L38.373032,78.298001 L38.373032,78.2977859 Z M51.843784,78.4251228 L47.8632074,69.0568261 L60.0656672,69.4975581 L62.3419557,70.9703213 L65.5258097,78.4259832 L51.843784,78.4259832 L51.843784,78.4251228 Z M66.5847806,78.4251228 L63.5295562,71.2693049 L64.8039221,69.6683444 L77.6354306,70.1299407 L79.9991352,71.6607798 L82.8845164,78.4257681 L66.5845637,78.4257681 L66.5845637,78.4251228 L66.5847806,78.4251228 Z M72.0898242,92.4721903 L79.4091309,87.6346785 L85.8742329,90.5208383 L72.0898242,92.4721903 Z M88.364398,89.5107469 L84.4011745,87.7400756 L88.364398,87.9257035 L88.364398,89.5107469 Z M88.364398,85.9872573 L80.0570511,85.5977182 L78.7824683,81.3282752 L88.3622289,81.3282752 L88.3622289,85.9870422 L88.364398,85.9870422 L88.364398,85.9872573 Z M97.5098982,88.356326 L90.3172688,89.8228514 L90.3172688,88.0188402 L97.5098982,88.356326 Z M83.944355,78.4251228 L81.21103,72.0133224 L82.5695582,70.3065346 L94.1995837,70.7261872 L96.4125336,72.1576519 L99.082086,78.4238322 L83.944355,78.4238322 L83.944355,78.4251228 Z M100.142142,78.4251228 L97.5587037,72.3607026 L98.7289511,70.8909508 L110.427955,71.3127543 L113.497279,78.4251228 L100.142142,78.4251228 Z M103.938559,6.48428779 C98.1983811,6.48428779 93.5265016,11.1161678 93.5265016,16.8089018 C93.5265016,22.5029264 98.1983811,27.1337309 103.938559,27.1337309 C109.678519,27.1337309 114.349531,22.501851 114.349531,16.8089018 C114.349531,11.1161678 109.678519,6.48428779 103.938559,6.48428779 Z M103.938559,25.198296 C99.2725359,25.198296 95.4793724,21.4347591 95.4793724,16.8089018 C95.4793724,12.1830445 99.2725359,8.41972273 103.938559,8.41972273 C108.601328,8.41972273 112.397745,12.1832596 112.397745,16.8089018 C112.397745,21.4358346 108.601328,25.198296 103.938559,25.198296 Z M87.8785122,11.7741468 C87.8724386,11.7104784 87.8806813,11.6468099 87.8997697,11.5829263 C87.9819798,11.3278223 88.2591951,11.1888702 88.5142852,11.2712521 L91.1829699,12.1305611 C91.4391446,12.2138033 91.5797044,12.4874056 91.495759,12.7403586 C91.4298173,12.9457754 91.2384998,13.0752633 91.0330828,13.0752633 C91.0330828,13.0752633 91.0330828,13.0752633 91.0309137,13.0752633 C90.9823251,13.0752633 90.9296152,13.0681651 90.8801589,13.0516027 L88.2125587,12.1922937 C88.0201566,12.1314215 87.8945638,11.9608502 87.8785122,11.7741468 Z M93.8920006,3.89065871 C93.7338708,3.6749173 93.7815917,3.37120157 94.0002404,3.2139663 C94.2180214,3.05694613 94.5258214,3.10405218 94.6826497,3.32086908 L96.3320587,5.57098965 C96.4908393,5.78673106 96.4413831,6.0900166 96.2246866,6.24768206 C96.1377044,6.31049012 96.0364059,6.33995829 95.9381441,6.33995829 C95.7873894,6.33995829 95.6396714,6.27112753 95.5444464,6.14077928 L95.5424942,6.1397038 L93.8920006,3.89065871 Z M111.587791,6.20272697 C111.371311,6.04506151 111.322506,5.74177597 111.480635,5.52603456 L113.127658,3.27591399 C113.286656,3.05802161 113.593371,3.01177595 113.810935,3.16901121 C114.027632,3.325171 114.075353,3.62824144 113.918308,3.84462814 L112.2702,6.09582419 C112.174975,6.22531206 112.02704,6.2950032 111.875418,6.2950032 C111.774119,6.2950032 111.674773,6.26488975 111.587791,6.20272697 Z M116.35598,12.6685165 C116.271817,12.4134125 116.412811,12.1408857 116.668769,12.058719 L119.3342,11.1983345 C119.593194,11.1148772 119.86759,11.2559802 119.951752,11.5085031 C120.033745,11.7636071 119.892969,12.0361339 119.635926,12.1183006 L116.969411,12.9795455 C116.919737,12.9961079 116.868112,13.0032061 116.817571,13.0032061 C116.613239,13.0034212 116.422789,12.8728578 116.35598,12.6685165 Z M119.976046,21.8359134 C119.90902,22.0402547 119.716835,22.170818 119.511201,22.170818 C119.461528,22.170818 119.409035,22.1637198 119.360446,22.1471574 L116.691761,21.2878484 C116.434719,21.2054666 116.295027,20.9320794 116.37702,20.6784811 C116.461183,20.4244526 116.740567,20.284425 116.993705,20.3678823 L119.660221,21.2271913 C119.919432,21.3082826 120.059124,21.5818848 119.976046,21.8359134 Z M113.98208,29.5290414 C114.139125,29.7439224 114.092489,30.0480683 113.87384,30.2042281 C113.788593,30.2670362 113.686427,30.2971496 113.588382,30.2971496 C113.436543,30.2971496 113.288608,30.2283189 113.1936,30.0973253 L111.54354,27.8480652 C111.385411,27.6323237 111.434216,27.3290382 111.65178,27.1728784 C111.868477,27.0167186 112.176277,27.0618888 112.333322,27.2797812 L113.98208,29.5290414 Z M103.48803,32.9346583 L103.48803,30.1538956 C103.48803,29.8858858 103.705594,29.6694991 103.975868,29.6694991 C104.041809,29.6694991 104.107534,29.6830502 104.167402,29.7077863 C104.343536,29.7819944 104.465007,29.9536411 104.465007,30.1538956 L104.465007,32.9346583 C104.465007,33.2018077 104.248311,33.4186246 103.975868,33.4186246 C103.707546,33.4186246 103.48803,33.2018077 103.48803,32.9346583 Z M93.8696585,29.9351429 C93.8605482,29.8744858 93.8614158,29.8106022 93.8776843,29.7488696 C93.8917837,29.687137 93.9171626,29.6275554 93.9575084,29.5742116 L95.6047483,27.324091 C95.7646135,27.1072741 96.0695936,27.059953 96.2871577,27.2171882 C96.3945298,27.2948379 96.4624237,27.4103445 96.481512,27.5338097 C96.501685,27.6557692 96.4754385,27.7867628 96.3945298,27.8932353 L94.7462053,30.1437861 C94.6511973,30.2743494 94.5032624,30.3431802 94.35164,30.3431802 C94.2512091,30.3431802 94.1531643,30.3145724 94.0640129,30.2513342 C93.9555562,30.1715335 93.8878793,30.0575326 93.8696585,29.9351429 Z M91.5209209,20.7511836 C91.6020465,21.0060725 91.4621374,21.2785993 91.2050951,21.3605509 L91.2050951,21.3620566 L88.5385794,22.2213656 C88.4880386,22.2374978 88.4372809,22.2450262 88.3878247,22.2450262 C88.1824078,22.2450262 87.9889211,22.1155383 87.9229794,21.9107668 C87.9006373,21.8460229 87.8967329,21.7823544 87.9006373,21.7184709 C87.9169058,21.5311221 88.0433663,21.3605509 88.236853,21.2988183 L90.9033687,20.4395093 C91.1625801,20.3562671 91.4389277,20.4971551 91.5209209,20.7511836 Z M103.409941,3.26537428 L103.409941,0.484181378 C103.409941,0.216601798 103.627505,0 103.897779,0 C104.169138,0 104.385834,0.215741414 104.385834,0.484181378 L104.385834,3.26731014 C104.385834,3.53488972 104.169138,3.75170662 103.897779,3.75170662 C103.629674,3.75170662 103.409941,3.5359652 103.409941,3.26731014 L103.409941,3.26537428 Z" id="太阳能icon" fill="#FFFFFF" fill-rule="nonzero"></path>
    </g>
</svg>