<?xml version="1.0" encoding="UTF-8"?>
<svg width="60px" height="120px" viewBox="0 0 60 120" version="1.1" xmlns="http://www.w3.org/2000/svg" xmlns:xlink="http://www.w3.org/1999/xlink">
    <!-- Generator: Sketch 51.2 (57519) - http://www.bohemiancoding.com/sketch -->
    <title>icon-wang</title>
    <desc>Created with Sketch.</desc>
    <defs></defs>
    <g id="icon-wang" stroke="none" stroke-width="1" fill="none" fill-rule="evenodd">
        <path d="M46.8466904,120 L38.7760996,79.0914241 L38.7760996,58.882011 L49.3160597,58.882011 L49.3160597,60.7830959 L47.6897346,60.7830959 C47.0018207,60.7830959 46.4448774,61.3383134 46.4448774,62.0194305 C46.4448774,62.7005477 47.0018207,63.2557652 47.6897346,63.2557652 L49.3160597,63.2557652 L49.3160597,64.3863441 L47.6897346,64.3863441 C47.0018207,64.3863441 46.4448774,64.9415616 46.4448774,65.6226787 C46.4448774,66.3037959 47.0018207,66.8590134 47.6897346,66.8590134 L49.3160597,66.8590134 L49.3160597,70.2583041 C49.3160597,70.7140609 49.6898983,71.0804289 50.1463883,71.0804289 L54.3120186,71.0804289 C54.7685086,71.0804289 55.1423472,70.7128019 55.1423472,70.2583041 L55.1423472,66.8590134 L57.0471439,66.8590134 C57.7414156,66.8590134 58.2983589,66.3037959 58.2983589,65.6226787 C58.2983589,64.9403026 57.7414156,64.3863441 57.0471439,64.3863441 L55.1423472,64.3863441 L55.1423472,63.2557652 L57.0471439,63.2557652 C57.7414156,63.2557652 58.2983589,62.7005477 58.2983589,62.0194305 C58.2983589,61.3370544 57.7414156,60.7830959 57.0471439,60.7830959 L55.1423472,60.7830959 L55.1423472,58.882011 L58.9582985,58.882011 C59.4325903,58.882011 59.8534766,58.5609669 59.9666455,58.1026922 C60.0861721,57.6444174 59.8776363,57.1685167 59.4503921,56.9418973 L38.7748281,45.8841303 L38.7748281,31.9646642 L47.029795,31.9646642 L47.029795,33.6592736 L45.3920258,33.6592736 C44.7091982,33.6592736 44.1458971,34.2119731 44.1458971,34.8956082 C44.1458971,35.5716894 44.7091982,36.1294248 45.3920258,36.1294248 L47.029795,36.1294248 L47.029795,37.2637808 L45.3920258,37.2637808 C44.7091982,37.2637808 44.1458971,37.8189983 44.1458971,38.5001154 C44.1458971,39.1812326 44.7091982,39.7339321 45.3920258,39.7339321 L47.029795,39.7339321 L47.029795,43.1357408 C47.029795,43.5914976 47.3972758,43.9616426 47.8601236,43.9616426 L52.0193961,43.9616426 C52.4822439,43.9616426 52.8497247,43.5914976 52.8497247,43.1357408 L52.8497247,39.7339321 L54.7608792,39.7339321 C55.4551509,39.7339321 56.0070079,39.1824916 56.0070079,38.5001154 C56.0070079,37.8177393 55.4538794,37.2637808 54.7608792,37.2637808 L52.8497247,37.2637808 L52.8497247,36.1294248 L54.7608792,36.1294248 C55.4551509,36.1294248 56.0070079,35.5779843 56.0070079,34.8956082 C56.0070079,34.2081961 55.4538794,33.6592736 54.7608792,33.6592736 L52.8497247,33.6592736 L52.8497247,31.9646642 L55.2110114,31.9646642 C55.6853033,31.9646642 56.0947456,31.649915 56.22063,31.1941583 C56.3388851,30.7446965 56.1379786,30.2662778 55.7209069,30.0371404 L38.7722849,20.5443062 L38.7722849,19.4401662 C38.7722849,19.2349497 38.7061638,19.0410643 38.5942666,18.8698407 L31.069175,7.58923138 L31.069175,1.02860021 C31.0742613,0.458274755 30.6075988,0 30.0328537,0 C29.4581086,0 28.9939893,0.458274755 28.9939893,1.02860021 L28.9939893,7.58923138 L21.4663546,18.8698407 C21.3531858,19.0372873 21.2883362,19.2349497 21.2883362,19.4401662 L21.2883362,20.3655287 L4.26850688,30.0371404 C3.85906459,30.2700548 3.65815813,30.7484735 3.77895632,31.1979352 C3.90356919,31.649915 4.31301148,31.9646642 4.78603177,31.9646642 L8.24848939,31.9646642 L8.24848939,33.6592736 L6.61962115,33.6592736 C5.92916412,33.6592736 5.37094932,34.2119731 5.37094932,34.8956082 C5.37094932,35.5716894 5.92916412,36.1294248 6.61962115,36.1294248 L8.24848939,36.1294248 L8.24848939,37.2637808 L6.61962115,37.2637808 C5.92916412,37.2637808 5.37094932,37.8189983 5.37094932,38.5001154 C5.37094932,39.1812326 5.92916412,39.7339321 6.61962115,39.7339321 L8.24848939,39.7339321 L8.24848939,43.1357408 C8.24848939,43.5914976 8.622328,43.9616426 9.08263269,43.9616426 L13.2482629,43.9616426 C13.704753,43.9616426 14.0760484,43.5914976 14.0760484,43.1357408 L14.0760484,39.7339321 L15.987203,39.7339321 C16.6751169,39.7339321 17.2333317,39.1824916 17.2333317,38.5001154 C17.2333317,37.8177393 16.6751169,37.2637808 15.987203,37.2637808 L14.0760484,37.2637808 L14.0760484,36.1294248 L15.987203,36.1294248 C16.6751169,36.1294248 17.2333317,35.5779843 17.2333317,34.8956082 C17.2333317,34.2081961 16.6751169,33.6592736 15.987203,33.6592736 L14.0760484,33.6592736 L14.0760484,31.9646642 L21.2896078,31.9646642 L21.2896078,45.6864679 L0.540293238,56.9444153 C0.121950029,57.1735527 -0.085314236,57.6469354 0.0329408353,58.1052101 C0.152467467,58.5597079 0.566995996,58.880752 1.0425594,58.880752 L5.12808138,58.880752 L5.12808138,60.9832763 L3.49921314,60.9832763 C2.81129923,60.9832763 2.25054131,61.5384938 2.25054131,62.219611 C2.25054131,62.9007281 2.81129923,63.4597226 3.49921314,63.4597226 L5.12808138,63.4597226 L5.12808138,64.5940785 L3.49921314,64.5940785 C2.81129923,64.5940785 2.25054131,65.145519 2.25054131,65.8278952 C2.25054131,66.5127893 2.81129923,67.0642298 3.49921314,67.0642298 L5.12808138,67.0642298 L5.12808138,70.4635206 C5.12808138,70.9217953 5.49937687,71.2881633 5.95841,71.2881633 L10.1214971,71.2881633 C10.5805303,71.2881633 10.9543689,70.9205363 10.9543689,70.4635206 L10.9543689,67.0642298 L12.8655234,67.0642298 C13.5483511,67.0642298 14.1116521,66.5127893 14.1116521,65.8278952 C14.1116521,65.145519 13.5483511,64.5940785 12.8655234,64.5940785 L10.9543689,64.5940785 L10.9543689,63.4597226 L12.8655234,63.4597226 C13.5483511,63.4597226 14.1116521,62.9019871 14.1116521,62.219611 C14.1116521,61.5372348 13.5483511,60.9832763 12.8655234,60.9832763 L10.9543689,60.9832763 L10.9543689,58.880752 L21.2896078,58.880752 L21.2896078,79.0788342 L11.9754315,120 L26.6187154,120 L32.1970487,120 L46.8466904,120 Z M57.049687,65.2122458 C57.2874687,65.2122458 57.4705734,65.3948003 57.4705734,65.6239377 C57.4705734,65.8505571 57.2861972,66.0381476 57.049687,66.0381476 L47.6910061,66.0381476 C47.4595822,66.0381476 47.2764776,65.8505571 47.2764776,65.6239377 C47.2764776,65.3948003 47.4608538,65.2122458 47.6910061,65.2122458 L57.049687,65.2122458 Z M57.049687,61.6052206 C57.2874687,61.6052206 57.4705734,61.7928111 57.4705734,62.0194305 C57.4705734,62.2460499 57.2861972,62.4311224 57.049687,62.4311224 L47.6910061,62.4311224 C47.4595822,62.4311224 47.2764776,62.2460499 47.2764776,62.0194305 C47.2764776,61.7928111 47.4608538,61.6052206 47.6910061,61.6052206 L57.049687,61.6052206 Z M54.7646939,38.0846465 C54.9961178,38.0846465 55.1855802,38.272237 55.1855802,38.5026334 C55.1855802,38.7292528 54.9961178,38.9105483 54.7646939,38.9105483 L45.3945689,38.9105483 C45.1682313,38.9105483 44.9851267,38.7279938 44.9851267,38.5026334 C44.9851267,38.273496 45.1695028,38.0846465 45.3945689,38.0846465 L54.7646939,38.0846465 Z M54.7646939,34.4826573 C54.9961178,34.4826573 55.1855802,34.6652118 55.1855802,34.8918312 C55.1855802,35.1209686 54.9961178,35.3060411 54.7646939,35.3060411 L45.3945689,35.3060411 C45.1682313,35.3060411 44.9851267,35.1209686 44.9851267,34.8918312 C44.9851267,34.6652118 45.1695028,34.4826573 45.3945689,34.4826573 L54.7646939,34.4826573 Z M15.9859314,38.0846465 C16.2148122,38.0846465 16.4042746,38.272237 16.4042746,38.5026334 C16.4042746,38.7292528 16.2173553,38.9105483 15.9859314,38.9105483 L6.62089271,38.9105483 C6.39201193,38.9105483 6.2025495,38.7279938 6.2025495,38.5026334 C6.2025495,38.273496 6.38692569,38.0846465 6.62089271,38.0846465 L15.9859314,38.0846465 Z M15.9859314,34.4826573 C16.2148122,34.4826573 16.4042746,34.6652118 16.4042746,34.8918312 C16.4042746,35.1209686 16.2173553,35.3060411 15.9859314,35.3060411 L6.62089271,35.3060411 C6.39201193,35.3060411 6.2025495,35.1209686 6.2025495,34.8918312 C6.2025495,34.6652118 6.38692569,34.4826573 6.62089271,34.4826573 L15.9859314,34.4826573 Z M12.8642519,65.4149443 C13.0931326,65.4149443 13.2762373,65.6000168 13.2762373,65.8291542 C13.2762373,66.0582915 13.0918611,66.240846 12.8642519,66.240846 L3.49667002,66.240846 C3.27160392,66.240846 3.08214149,66.0582915 3.08214149,65.8291542 C3.08214149,65.6000168 3.26651768,65.4149443 3.49667002,65.4149443 L12.8642519,65.4149443 Z M12.8642519,61.8104371 C13.0931326,61.8104371 13.2762373,61.9955096 13.2762373,62.222129 C13.2762373,62.4512663 13.0918611,62.6363388 12.8642519,62.6363388 L3.49667002,62.6363388 C3.27160392,62.6363388 3.08214149,62.4512663 3.08214149,62.222129 C3.08214149,61.9955096 3.26651768,61.8104371 3.49667002,61.8104371 L12.8642519,61.8104371 Z M17.6262437,117.9428 L29.3004352,112.730554 L40.4520156,117.9428 L17.6262437,117.9428 Z M16.8696656,106.925321 L27.3168018,111.807709 L14.3621494,117.590281 L16.8696656,106.925321 Z M31.3311164,29.4844409 L36.6932845,24.4169797 L36.6932845,29.9011688 L31.7672614,29.9011688 L31.3311164,29.4844409 Z M36.639879,22.1872967 L30.124406,28.347567 L23.6076615,22.1872967 L36.639879,22.1872967 Z M28.9189672,29.4856999 L28.4790075,29.9024278 L23.3724229,29.9024278 L23.3724229,24.2407201 L28.9189672,29.4856999 Z M36.6106331,36.7627001 L29.933672,45.2206392 L23.4232853,36.9653986 L28.7104314,31.9646642 L31.5421953,31.9646642 L36.6106331,36.7627001 Z M23.3736945,78.028831 C23.5161092,77.9696582 23.6521661,77.8815284 23.7475331,77.7468158 L30.0888023,68.6971484 L36.2851138,77.5403403 C36.3919248,77.686384 36.533068,77.7694777 36.6945561,77.8286506 L36.6945561,78.1698386 L23.3736945,78.1698386 L23.3736945,78.028831 Z M31.1035072,67.2518203 L36.6945561,59.278595 L36.6945561,75.2250456 L31.1035072,67.2518203 Z M29.933672,47.8934889 L36.6640386,56.4194137 L36.3906532,56.8185156 L23.788223,56.8185156 L23.3698798,56.2255283 L29.933672,47.8934889 Z M34.9398034,58.882011 L30.0888023,65.8064922 L25.2339866,58.882011 L34.9398034,58.882011 Z M36.6945561,53.7755209 L30.9916099,46.5539165 L36.6945561,39.3386071 L36.6945561,53.7755209 Z M28.8808204,46.5539165 L23.3736945,53.5287576 L23.3736945,39.5853705 L28.8808204,46.5539165 Z M29.0766407,67.2518203 L23.3736945,75.3899742 L23.3736945,59.1174434 L29.0766407,67.2518203 Z M23.1575293,80.2257801 L36.8827469,80.2257801 L37.7919123,84.7090669 L22.100863,84.7090669 L23.1575293,80.2257801 Z M31.9312927,100.027278 L40.2244064,96.6141385 L41.7731663,104.181967 L31.9312927,100.027278 Z M41.054735,105.673878 L29.3144224,110.915081 L18.1539411,105.697799 L29.7823564,100.914871 L41.054735,105.673878 Z M29.795072,99.1283547 L20.8038719,95.33248 L29.8713656,90.8542292 L39.0253254,95.326185 L29.795072,99.1283547 Z M31.7443733,89.9326437 L38.2127986,86.7423463 L39.6433035,93.7939862 L31.7443733,89.9326437 Z M29.8726372,89.0160942 L24.4100158,86.3545754 L35.2691374,86.3545754 L29.8726372,89.0160942 Z M21.6024115,86.8241811 L27.9970863,89.9389387 L19.9353965,93.9224038 L21.6024115,86.8241811 Z M19.3263193,96.4957929 L27.6435926,100.003357 L17.5194327,104.174413 L19.3263193,96.4957929 Z M31.2929696,111.836666 L42.3250233,106.919026 L44.5744128,117.9428 L44.3480751,117.9428 L31.2929696,111.836666 Z M54.8473453,56.8185156 L38.7760996,56.8185156 L38.7760996,48.228382 L54.8473453,56.8185156 Z M36.6945561,34.5556791 L33.9530729,31.9646642 L36.6945561,31.9646642 L36.6945561,34.5556791 Z M51.2628179,29.9011688 L38.7773712,29.9011688 L38.7773712,22.9124788 L51.2628179,29.9011688 Z M30.0328537,9.76603647 L36.6945561,19.7461024 L36.6945561,20.5103133 C36.6881983,20.5216442 36.6754827,20.5254212 36.6653102,20.5367522 L23.4538028,20.5367522 C23.4296431,20.4775794 23.4271,20.4158885 23.3940394,20.3604927 C23.3881055,20.3529387 23.3800523,20.1481419 23.3698798,19.7461024 L30.0328537,9.76603647 Z M8.68844912,29.9011688 L21.2870647,22.7412552 L21.2870647,29.9011688 L8.68844912,29.9011688 Z M26.2995538,31.9646642 L23.3711514,34.7319386 L23.3711514,31.9646642 L26.2995538,31.9646642 Z M21.2870647,48.0344965 L21.2870647,56.8185156 L5.10137862,56.8185156 L21.2870647,48.0344965 Z M13.6462612,120 L24.0794102,120 L13.6462612,120 Z M45.1682313,120 L34.7236382,120 L45.1682313,120 Z" id="电网icon" fill="#FFBC0B" fill-rule="nonzero"></path>
    </g>
</svg>